<?xml version="1.0"?>
<svg xmlns="http://www.w3.org/2000/svg" xmlns:xlink="http://www.w3.org/1999/xlink" xmlns:svgjs="http://svgjs.com/svgjs" version="1.1" width="512" height="512" x="0" y="0" viewBox="0 0 512 512" style="enable-background:new 0 0 512 512" xml:space="preserve" class=""><g><g xmlns="http://www.w3.org/2000/svg"><path d="m497 106h-226v-30c0-8.284-6.716-15-15-15h-30v-45c0-8.284-6.716-15-15-15h-150c-8.284 0-15 6.716-15 15v45h-31c-8.284 0-15 6.716-15 15v360c0 8.284 6.716 15 15 15h31v45c0 8.284 6.716 15 15 15h150c8.284 0 15-6.716 15-15v-45h30c8.284 0 15-6.716 15-15v-30h165c8.284 0 15-6.716 15-15v-67.099c0-18.989 9.123-37.057 24.405-48.331 22.914-16.904 36.595-43.997 36.595-72.471v-82.099c0-8.284-6.716-15-15-15zm-15 60h-31v-30h31zm-151.05 0v-30h30.1v30zm60.1-30h29.95v30h-29.95zm-90.1 0v30h-29.95c0-31.451.05-30 .05-30zm-270.95 15h121v210h-121zm151 0h60v210h-60zm-105-120h120v30h-120zm165 60v30c-10.18 0-203.32 0-211 0v-30zm-45 390h-120v-30h120zm-166-60v-30h211v30zm241-75h29.95v30h-29.95zm90.05 0v30h-30.1v-30zm30 30v-30h29.95v30zm66.545-124.57c-20.783 15.332-33.969 39.046-36.242 64.57h-150.353v-120h211v7.099c0 18.989-9.123 37.056-24.405 48.331z" fill="#ffffff" data-original="#000000" style="" class=""/></g></g></svg>
